<?xml version="1.0" encoding="utf-8" standalone="no"?>
<!DOCTYPE svg PUBLIC "-//W3C//DTD SVG 1.1//EN"
  "http://www.w3.org/Graphics/SVG/1.1/DTD/svg11.dtd">
<svg xmlns:xlink="http://www.w3.org/1999/xlink" width="864pt" height="288pt" viewBox="0 0 864 288" xmlns="http://www.w3.org/2000/svg" version="1.1">
 <metadata>
  <rdf:RDF xmlns:dc="http://purl.org/dc/elements/1.1/" xmlns:cc="http://creativecommons.org/ns#" xmlns:rdf="http://www.w3.org/1999/02/22-rdf-syntax-ns#">
   <cc:Work>
    <dc:type rdf:resource="http://purl.org/dc/dcmitype/StillImage"/>
    <dc:date>2026-09-05T17:09:44.354685</dc:date>
    <dc:format>image/svg+xml</dc:format>
    <dc:creator>
     <cc:Agent>
      <dc:title>Matplotlib v3.10.9, https://matplotlib.org/</dc:title>
     </cc:Agent>
    </dc:creator>
   </cc:Work>
  </rdf:RDF>
 </metadata>
 <defs>
  <style type="text/css">*{stroke-linejoin: round; stroke-linecap: butt}</style>
 </defs>
 <g id="figure_1">
  <g id="patch_1">
   <path d="M 0 288 
L 864 288 
L 864 0 
L 0 0 
z
" style="fill: #ffffff"/>
  </g>
  <g id="axes_1">
   <g id="patch_2">
    <path d="M 25.903365 254.64351 
L 419.812881 254.64351 
L 419.812881 18.118365 
L 25.903365 18.118365 
z
" style="fill: #ffffff"/>
   </g>
   <g id="FillBetweenPolyCollection_1">
    <defs>
     <path id="mc33d9d7800" d="M 193.73642 -62.611023 
L 193.73642 -60.472936 
L 242.680567 -62.433455 
L 286.7303 -78.395568 
L 330.780033 -156.923571 
L 374.829766 -232.139082 
L 418.879498 -246.357208 
L 418.879498 -250.560286 
L 418.879498 -250.560286 
L 374.829766 -236.163078 
L 330.780033 -160.781075 
L 286.7303 -80.937735 
L 242.680567 -64.618368 
L 193.73642 -62.611023 
z
" style="stroke: #1e9187; stroke-opacity: 0.15"/>
    </defs>
    <g clip-path="url(#pb3e7f16da9)">
     <use xlink:href="#mc33d9d7800" x="0" y="288" style="fill: #1e9187; fill-opacity: 0.15; stroke: #1e9187; stroke-opacity: 0.15"/>
    </g>
   </g>
   <g id="FillBetweenPolyCollection_2">
    <defs>
     <path id="md2bbfcceec" d="M 193.73642 -45.498543 
L 193.73642 -44.107633 
L 242.680567 -45.319452 
L 286.7303 -55.649914 
L 330.780033 -121.82165 
L 374.829766 -226.801018 
L 418.879498 -255.359085 
L 418.879498 -259.130492 
L 418.879498 -259.130492 
L 374.829766 -230.338184 
L 330.780033 -126.115955 
L 286.7303 -57.663918 
L 242.680567 -46.780362 
L 193.73642 -45.498543 
z
" style="stroke: #cd5937; stroke-opacity: 0.15"/>
    </defs>
    <g clip-path="url(#pb3e7f16da9)">
     <use xlink:href="#md2bbfcceec" x="0" y="288" style="fill: #cd5937; fill-opacity: 0.15; stroke: #cd5937; stroke-opacity: 0.15"/>
    </g>
   </g>
   <g id="matplotlib.axis_1">
    <g id="xtick_1">
     <g id="line2d_1">
      <path d="M 56.692807 254.64351 
L 56.692807 18.118365 
" clip-path="url(#pb3e7f16da9)" style="fill: none; stroke: #b0b0b0; stroke-opacity: 0.2; stroke-width: 0.8; stroke-linecap: square"/>
     </g>
     <g id="line2d_2">
      <defs>
       <path id="mf720b68ad9" d="M 0 0 
L 0 3.5 
" style="stroke: #000000; stroke-width: 0.8"/>
      </defs>
      <g>
       <use xlink:href="#mf720b68ad9" x="56.692807" y="254.64351" style="stroke: #000000; stroke-width: 0.8"/>
      </g>
     </g>
     <g id="text_1">
      <!-- $\mathdefault{-10^{1}}$ -->
      <g transform="translate(43.692807 269.241947) scale(0.1 -0.1)">
       <defs>
        <path id="DejaVuSans-2212" d="M 678 2272 
L 4684 2272 
L 4684 1741 
L 678 1741 
L 678 2272 
z
" transform="scale(0.015625)"/>
        <path id="DejaVuSans-31" d="M 794 531 
L 1825 531 
L 1825 4091 
L 703 3866 
L 703 4441 
L 1819 4666 
L 2450 4666 
L 2450 531 
L 3481 531 
L 3481 0 
L 794 0 
L 794 531 
z
" transform="scale(0.015625)"/>
        <path id="DejaVuSans-30" d="M 2034 4250 
Q 1547 4250 1301 3770 
Q 1056 3291 1056 2328 
Q 1056 1369 1301 889 
Q 1547 409 2034 409 
Q 2525 409 2770 889 
Q 3016 1369 3016 2328 
Q 3016 3291 2770 3770 
Q 2525 4250 2034 4250 
z
M 2034 4750 
Q 2819 4750 3233 4129 
Q 3647 3509 3647 2328 
Q 3647 1150 3233 529 
Q 2819 -91 2034 -91 
Q 1250 -91 836 529 
Q 422 1150 422 2328 
Q 422 3509 836 4129 
Q 1250 4750 2034 4750 
z
" transform="scale(0.015625)"/>
       </defs>
       <use xlink:href="#DejaVuSans-2212" transform="translate(0 0.684375)"/>
       <use xlink:href="#DejaVuSans-31" transform="translate(83.789062 0.684375)"/>
       <use xlink:href="#DejaVuSans-30" transform="translate(147.412109 0.684375)"/>
       <use xlink:href="#DejaVuSans-31" transform="translate(211.992188 38.965625) scale(0.7)"/>
      </g>
     </g>
    </g>
    <g id="xtick_2">
     <g id="line2d_3">
      <path d="M 100.74254 254.64351 
L 100.74254 18.118365 
" clip-path="url(#pb3e7f16da9)" style="fill: none; stroke: #b0b0b0; stroke-opacity: 0.2; stroke-width: 0.8; stroke-linecap: square"/>
     </g>
     <g id="line2d_4">
      <g>
       <use xlink:href="#mf720b68ad9" x="100.74254" y="254.64351" style="stroke: #000000; stroke-width: 0.8"/>
      </g>
     </g>
     <g id="text_2">
      <!-- $\mathdefault{-10^{0}}$ -->
      <g transform="translate(87.74254 269.241947) scale(0.1 -0.1)">
       <use xlink:href="#DejaVuSans-2212" transform="translate(0 0.765625)"/>
       <use xlink:href="#DejaVuSans-31" transform="translate(83.789062 0.765625)"/>
       <use xlink:href="#DejaVuSans-30" transform="translate(147.412109 0.765625)"/>
       <use xlink:href="#DejaVuSans-30" transform="translate(211.992188 39.046875) scale(0.7)"/>
      </g>
     </g>
    </g>
    <g id="xtick_3">
     <g id="line2d_5">
      <path d="M 144.792272 254.64351 
L 144.792272 18.118365 
" clip-path="url(#pb3e7f16da9)" style="fill: none; stroke: #b0b0b0; stroke-opacity: 0.2; stroke-width: 0.8; stroke-linecap: square"/>
     </g>
     <g id="line2d_6">
      <g>
       <use xlink:href="#mf720b68ad9" x="144.792272" y="254.64351" style="stroke: #000000; stroke-width: 0.8"/>
      </g>
     </g>
     <g id="text_3">
      <!-- $\mathdefault{-10^{-1}}$ -->
      <g transform="translate(128.892272 269.241947) scale(0.1 -0.1)">
       <use xlink:href="#DejaVuSans-2212" transform="translate(0 0.684375)"/>
       <use xlink:href="#DejaVuSans-31" transform="translate(83.789062 0.684375)"/>
       <use xlink:href="#DejaVuSans-30" transform="translate(147.412109 0.684375)"/>
       <use xlink:href="#DejaVuSans-2212" transform="translate(211.992188 38.965625) scale(0.7)"/>
       <use xlink:href="#DejaVuSans-31" transform="translate(270.644531 38.965625) scale(0.7)"/>
      </g>
     </g>
    </g>
    <g id="xtick_4">
     <g id="line2d_7">
      <path d="M 193.73642 254.64351 
L 193.73642 18.118365 
" clip-path="url(#pb3e7f16da9)" style="fill: none; stroke: #b0b0b0; stroke-opacity: 0.2; stroke-width: 0.8; stroke-linecap: square"/>
     </g>
     <g id="line2d_8">
      <g>
       <use xlink:href="#mf720b68ad9" x="193.73642" y="254.64351" style="stroke: #000000; stroke-width: 0.8"/>
      </g>
     </g>
     <g id="text_4">
      <!-- $\mathdefault{0}$ -->
      <g transform="translate(190.53642 269.241947) scale(0.1 -0.1)">
       <use xlink:href="#DejaVuSans-30" transform="translate(0 0.78125)"/>
      </g>
     </g>
    </g>
    <g id="xtick_5">
     <g id="line2d_9">
      <path d="M 242.680567 254.64351 
L 242.680567 18.118365 
" clip-path="url(#pb3e7f16da9)" style="fill: none; stroke: #b0b0b0; stroke-opacity: 0.2; stroke-width: 0.8; stroke-linecap: square"/>
     </g>
     <g id="line2d_10">
      <g>
       <use xlink:href="#mf720b68ad9" x="242.680567" y="254.64351" style="stroke: #000000; stroke-width: 0.8"/>
      </g>
     </g>
     <g id="text_5">
      <!-- $\mathdefault{10^{-1}}$ -->
      <g transform="translate(230.930567 269.241947) scale(0.1 -0.1)">
       <use xlink:href="#DejaVuSans-31" transform="translate(0 0.684375)"/>
       <use xlink:href="#DejaVuSans-30" transform="translate(63.623047 0.684375)"/>
       <use xlink:href="#DejaVuSans-2212" transform="translate(128.203125 38.965625) scale(0.7)"/>
       <use xlink:href="#DejaVuSans-31" transform="translate(186.855469 38.965625) scale(0.7)"/>
      </g>
     </g>
    </g>
    <g id="xtick_6">
     <g id="line2d_11">
      <path d="M 286.7303 254.64351 
L 286.7303 18.118365 
" clip-path="url(#pb3e7f16da9)" style="fill: none; stroke: #b0b0b0; stroke-opacity: 0.2; stroke-width: 0.8; stroke-linecap: square"/>
     </g>
     <g id="line2d_12">
      <g>
       <use xlink:href="#mf720b68ad9" x="286.7303" y="254.64351" style="stroke: #000000; stroke-width: 0.8"/>
      </g>
     </g>
     <g id="text_6">
      <!-- $\mathdefault{10^{0}}$ -->
      <g transform="translate(277.9303 269.241947) scale(0.1 -0.1)">
       <use xlink:href="#DejaVuSans-31" transform="translate(0 0.765625)"/>
       <use xlink:href="#DejaVuSans-30" transform="translate(63.623047 0.765625)"/>
       <use xlink:href="#DejaVuSans-30" transform="translate(128.203125 39.046875) scale(0.7)"/>
      </g>
     </g>
    </g>
    <g id="xtick_7">
     <g id="line2d_13">
      <path d="M 330.780033 254.64351 
L 330.780033 18.118365 
" clip-path="url(#pb3e7f16da9)" style="fill: none; stroke: #b0b0b0; stroke-opacity: 0.2; stroke-width: 0.8; stroke-linecap: square"/>
     </g>
     <g id="line2d_14">
      <g>
       <use xlink:href="#mf720b68ad9" x="330.780033" y="254.64351" style="stroke: #000000; stroke-width: 0.8"/>
      </g>
     </g>
     <g id="text_7">
      <!-- $\mathdefault{10^{1}}$ -->
      <g transform="translate(321.980033 269.241947) scale(0.1 -0.1)">
       <use xlink:href="#DejaVuSans-31" transform="translate(0 0.684375)"/>
       <use xlink:href="#DejaVuSans-30" transform="translate(63.623047 0.684375)"/>
       <use xlink:href="#DejaVuSans-31" transform="translate(128.203125 38.965625) scale(0.7)"/>
      </g>
     </g>
    </g>
    <g id="xtick_8">
     <g id="line2d_15">
      <path d="M 374.829766 254.64351 
L 374.829766 18.118365 
" clip-path="url(#pb3e7f16da9)" style="fill: none; stroke: #b0b0b0; stroke-opacity: 0.2; stroke-width: 0.8; stroke-linecap: square"/>
     </g>
     <g id="line2d_16">
      <g>
       <use xlink:href="#mf720b68ad9" x="374.829766" y="254.64351" style="stroke: #000000; stroke-width: 0.8"/>
      </g>
     </g>
     <g id="text_8">
      <!-- $\mathdefault{10^{2}}$ -->
      <g transform="translate(366.029766 269.241947) scale(0.1 -0.1)">
       <defs>
        <path id="DejaVuSans-32" d="M 1228 531 
L 3431 531 
L 3431 0 
L 469 0 
L 469 531 
Q 828 903 1448 1529 
Q 2069 2156 2228 2338 
Q 2531 2678 2651 2914 
Q 2772 3150 2772 3378 
Q 2772 3750 2511 3984 
Q 2250 4219 1831 4219 
Q 1534 4219 1204 4116 
Q 875 4013 500 3803 
L 500 4441 
Q 881 4594 1212 4672 
Q 1544 4750 1819 4750 
Q 2544 4750 2975 4387 
Q 3406 4025 3406 3419 
Q 3406 3131 3298 2873 
Q 3191 2616 2906 2266 
Q 2828 2175 2409 1742 
Q 1991 1309 1228 531 
z
" transform="scale(0.015625)"/>
       </defs>
       <use xlink:href="#DejaVuSans-31" transform="translate(0 0.765625)"/>
       <use xlink:href="#DejaVuSans-30" transform="translate(63.623047 0.765625)"/>
       <use xlink:href="#DejaVuSans-32" transform="translate(128.203125 39.046875) scale(0.7)"/>
      </g>
     </g>
    </g>
    <g id="xtick_9">
     <g id="line2d_17">
      <path d="M 418.879498 254.64351 
L 418.879498 18.118365 
" clip-path="url(#pb3e7f16da9)" style="fill: none; stroke: #b0b0b0; stroke-opacity: 0.2; stroke-width: 0.8; stroke-linecap: square"/>
     </g>
     <g id="line2d_18">
      <g>
       <use xlink:href="#mf720b68ad9" x="418.879498" y="254.64351" style="stroke: #000000; stroke-width: 0.8"/>
      </g>
     </g>
     <g id="text_9">
      <!-- $\mathdefault{10^{3}}$ -->
      <g transform="translate(410.079498 269.241947) scale(0.1 -0.1)">
       <defs>
        <path id="DejaVuSans-33" d="M 2597 2516 
Q 3050 2419 3304 2112 
Q 3559 1806 3559 1356 
Q 3559 666 3084 287 
Q 2609 -91 1734 -91 
Q 1441 -91 1130 -33 
Q 819 25 488 141 
L 488 750 
Q 750 597 1062 519 
Q 1375 441 1716 441 
Q 2309 441 2620 675 
Q 2931 909 2931 1356 
Q 2931 1769 2642 2001 
Q 2353 2234 1838 2234 
L 1294 2234 
L 1294 2753 
L 1863 2753 
Q 2328 2753 2575 2939 
Q 2822 3125 2822 3475 
Q 2822 3834 2567 4026 
Q 2313 4219 1838 4219 
Q 1578 4219 1281 4162 
Q 984 4106 628 3988 
L 628 4550 
Q 988 4650 1302 4700 
Q 1616 4750 1894 4750 
Q 2613 4750 3031 4423 
Q 3450 4097 3450 3541 
Q 3450 3153 3228 2886 
Q 3006 2619 2597 2516 
z
" transform="scale(0.015625)"/>
       </defs>
       <use xlink:href="#DejaVuSans-31" transform="translate(0 0.765625)"/>
       <use xlink:href="#DejaVuSans-30" transform="translate(63.623047 0.765625)"/>
       <use xlink:href="#DejaVuSans-33" transform="translate(128.203125 39.046875) scale(0.7)"/>
      </g>
     </g>
    </g>
    <g id="text_10">
     <!-- hypothetical extra body cost per attempt (us) -->
     <g transform="translate(108.389373 282.920073) scale(0.1 -0.1)">
      <defs>
       <path id="DejaVuSans-68" d="M 3513 2113 
L 3513 0 
L 2938 0 
L 2938 2094 
Q 2938 2591 2744 2837 
Q 2550 3084 2163 3084 
Q 1697 3084 1428 2787 
Q 1159 2491 1159 1978 
L 1159 0 
L 581 0 
L 581 4863 
L 1159 4863 
L 1159 2956 
Q 1366 3272 1645 3428 
Q 1925 3584 2291 3584 
Q 2894 3584 3203 3211 
Q 3513 2838 3513 2113 
z
" transform="scale(0.015625)"/>
       <path id="DejaVuSans-79" d="M 2059 -325 
Q 1816 -950 1584 -1140 
Q 1353 -1331 966 -1331 
L 506 -1331 
L 506 -850 
L 844 -850 
Q 1081 -850 1212 -737 
Q 1344 -625 1503 -206 
L 1606 56 
L 191 3500 
L 800 3500 
L 1894 763 
L 2988 3500 
L 3597 3500 
L 2059 -325 
z
" transform="scale(0.015625)"/>
       <path id="DejaVuSans-70" d="M 1159 525 
L 1159 -1331 
L 581 -1331 
L 581 3500 
L 1159 3500 
L 1159 2969 
Q 1341 3281 1617 3432 
Q 1894 3584 2278 3584 
Q 2916 3584 3314 3078 
Q 3713 2572 3713 1747 
Q 3713 922 3314 415 
Q 2916 -91 2278 -91 
Q 1894 -91 1617 61 
Q 1341 213 1159 525 
z
M 3116 1747 
Q 3116 2381 2855 2742 
Q 2594 3103 2138 3103 
Q 1681 3103 1420 2742 
Q 1159 2381 1159 1747 
Q 1159 1113 1420 752 
Q 1681 391 2138 391 
Q 2594 391 2855 752 
Q 3116 1113 3116 1747 
z
" transform="scale(0.015625)"/>
       <path id="DejaVuSans-6f" d="M 1959 3097 
Q 1497 3097 1228 2736 
Q 959 2375 959 1747 
Q 959 1119 1226 758 
Q 1494 397 1959 397 
Q 2419 397 2687 759 
Q 2956 1122 2956 1747 
Q 2956 2369 2687 2733 
Q 2419 3097 1959 3097 
z
M 1959 3584 
Q 2709 3584 3137 3096 
Q 3566 2609 3566 1747 
Q 3566 888 3137 398 
Q 2709 -91 1959 -91 
Q 1206 -91 779 398 
Q 353 888 353 1747 
Q 353 2609 779 3096 
Q 1206 3584 1959 3584 
z
" transform="scale(0.015625)"/>
       <path id="DejaVuSans-74" d="M 1172 4494 
L 1172 3500 
L 2356 3500 
L 2356 3053 
L 1172 3053 
L 1172 1153 
Q 1172 725 1289 603 
Q 1406 481 1766 481 
L 2356 481 
L 2356 0 
L 1766 0 
Q 1100 0 847 248 
Q 594 497 594 1153 
L 594 3053 
L 172 3053 
L 172 3500 
L 594 3500 
L 594 4494 
L 1172 4494 
z
" transform="scale(0.015625)"/>
       <path id="DejaVuSans-65" d="M 3597 1894 
L 3597 1613 
L 953 1613 
Q 991 1019 1311 708 
Q 1631 397 2203 397 
Q 2534 397 2845 478 
Q 3156 559 3463 722 
L 3463 178 
Q 3153 47 2828 -22 
Q 2503 -91 2169 -91 
Q 1331 -91 842 396 
Q 353 884 353 1716 
Q 353 2575 817 3079 
Q 1281 3584 2069 3584 
Q 2775 3584 3186 3129 
Q 3597 2675 3597 1894 
z
M 3022 2063 
Q 3016 2534 2758 2815 
Q 2500 3097 2075 3097 
Q 1594 3097 1305 2825 
Q 1016 2553 972 2059 
L 3022 2063 
z
" transform="scale(0.015625)"/>
       <path id="DejaVuSans-69" d="M 603 3500 
L 1178 3500 
L 1178 0 
L 603 0 
L 603 3500 
z
M 603 4863 
L 1178 4863 
L 1178 4134 
L 603 4134 
L 603 4863 
z
" transform="scale(0.015625)"/>
       <path id="DejaVuSans-63" d="M 3122 3366 
L 3122 2828 
Q 2878 2963 2633 3030 
Q 2388 3097 2138 3097 
Q 1578 3097 1268 2742 
Q 959 2388 959 1747 
Q 959 1106 1268 751 
Q 1578 397 2138 397 
Q 2388 397 2633 464 
Q 2878 531 3122 666 
L 3122 134 
Q 2881 22 2623 -34 
Q 2366 -91 2075 -91 
Q 1284 -91 818 406 
Q 353 903 353 1747 
Q 353 2603 823 3093 
Q 1294 3584 2113 3584 
Q 2378 3584 2631 3529 
Q 2884 3475 3122 3366 
z
" transform="scale(0.015625)"/>
       <path id="DejaVuSans-61" d="M 2194 1759 
Q 1497 1759 1228 1600 
Q 959 1441 959 1056 
Q 959 750 1161 570 
Q 1363 391 1709 391 
Q 2188 391 2477 730 
Q 2766 1069 2766 1631 
L 2766 1759 
L 2194 1759 
z
M 3341 1997 
L 3341 0 
L 2766 0 
L 2766 531 
Q 2569 213 2275 61 
Q 1981 -91 1556 -91 
Q 1019 -91 701 211 
Q 384 513 384 1019 
Q 384 1609 779 1909 
Q 1175 2209 1959 2209 
L 2766 2209 
L 2766 2266 
Q 2766 2663 2505 2880 
Q 2244 3097 1772 3097 
Q 1472 3097 1187 3025 
Q 903 2953 641 2809 
L 641 3341 
Q 956 3463 1253 3523 
Q 1550 3584 1831 3584 
Q 2591 3584 2966 3190 
Q 3341 2797 3341 1997 
z
" transform="scale(0.015625)"/>
       <path id="DejaVuSans-6c" d="M 603 4863 
L 1178 4863 
L 1178 0 
L 603 0 
L 603 4863 
z
" transform="scale(0.015625)"/>
       <path id="DejaVuSans-20" transform="scale(0.015625)"/>
       <path id="DejaVuSans-78" d="M 3513 3500 
L 2247 1797 
L 3578 0 
L 2900 0 
L 1881 1375 
L 863 0 
L 184 0 
L 1544 1831 
L 300 3500 
L 978 3500 
L 1906 2253 
L 2834 3500 
L 3513 3500 
z
" transform="scale(0.015625)"/>
       <path id="DejaVuSans-72" d="M 2631 2963 
Q 2534 3019 2420 3045 
Q 2306 3072 2169 3072 
Q 1681 3072 1420 2755 
Q 1159 2438 1159 1844 
L 1159 0 
L 581 0 
L 581 3500 
L 1159 3500 
L 1159 2956 
Q 1341 3275 1631 3429 
Q 1922 3584 2338 3584 
Q 2397 3584 2469 3576 
Q 2541 3569 2628 3553 
L 2631 2963 
z
" transform="scale(0.015625)"/>
       <path id="DejaVuSans-62" d="M 3116 1747 
Q 3116 2381 2855 2742 
Q 2594 3103 2138 3103 
Q 1681 3103 1420 2742 
Q 1159 2381 1159 1747 
Q 1159 1113 1420 752 
Q 1681 391 2138 391 
Q 2594 391 2855 752 
Q 3116 1113 3116 1747 
z
M 1159 2969 
Q 1341 3281 1617 3432 
Q 1894 3584 2278 3584 
Q 2916 3584 3314 3078 
Q 3713 2572 3713 1747 
Q 3713 922 3314 415 
Q 2916 -91 2278 -91 
Q 1894 -91 1617 61 
Q 1341 213 1159 525 
L 1159 0 
L 581 0 
L 581 4863 
L 1159 4863 
L 1159 2969 
z
" transform="scale(0.015625)"/>
       <path id="DejaVuSans-64" d="M 2906 2969 
L 2906 4863 
L 3481 4863 
L 3481 0 
L 2906 0 
L 2906 525 
Q 2725 213 2448 61 
Q 2172 -91 1784 -91 
Q 1150 -91 751 415 
Q 353 922 353 1747 
Q 353 2572 751 3078 
Q 1150 3584 1784 3584 
Q 2172 3584 2448 3432 
Q 2725 3281 2906 2969 
z
M 947 1747 
Q 947 1113 1208 752 
Q 1469 391 1925 391 
Q 2381 391 2643 752 
Q 2906 1113 2906 1747 
Q 2906 2381 2643 2742 
Q 2381 3103 1925 3103 
Q 1469 3103 1208 2742 
Q 947 2381 947 1747 
z
" transform="scale(0.015625)"/>
       <path id="DejaVuSans-73" d="M 2834 3397 
L 2834 2853 
Q 2591 2978 2328 3040 
Q 2066 3103 1784 3103 
Q 1356 3103 1142 2972 
Q 928 2841 928 2578 
Q 928 2378 1081 2264 
Q 1234 2150 1697 2047 
L 1894 2003 
Q 2506 1872 2764 1633 
Q 3022 1394 3022 966 
Q 3022 478 2636 193 
Q 2250 -91 1575 -91 
Q 1294 -91 989 -36 
Q 684 19 347 128 
L 347 722 
Q 666 556 975 473 
Q 1284 391 1588 391 
Q 1994 391 2212 530 
Q 2431 669 2431 922 
Q 2431 1156 2273 1281 
Q 2116 1406 1581 1522 
L 1381 1569 
Q 847 1681 609 1914 
Q 372 2147 372 2553 
Q 372 3047 722 3315 
Q 1072 3584 1716 3584 
Q 2034 3584 2315 3537 
Q 2597 3491 2834 3397 
z
" transform="scale(0.015625)"/>
       <path id="DejaVuSans-6d" d="M 3328 2828 
Q 3544 3216 3844 3400 
Q 4144 3584 4550 3584 
Q 5097 3584 5394 3201 
Q 5691 2819 5691 2113 
L 5691 0 
L 5113 0 
L 5113 2094 
Q 5113 2597 4934 2840 
Q 4756 3084 4391 3084 
Q 3944 3084 3684 2787 
Q 3425 2491 3425 1978 
L 3425 0 
L 2847 0 
L 2847 2094 
Q 2847 2600 2669 2842 
Q 2491 3084 2119 3084 
Q 1678 3084 1418 2786 
Q 1159 2488 1159 1978 
L 1159 0 
L 581 0 
L 581 3500 
L 1159 3500 
L 1159 2956 
Q 1356 3278 1631 3431 
Q 1906 3584 2284 3584 
Q 2666 3584 2933 3390 
Q 3200 3197 3328 2828 
z
" transform="scale(0.015625)"/>
       <path id="DejaVuSans-28" d="M 1984 4856 
Q 1566 4138 1362 3434 
Q 1159 2731 1159 2009 
Q 1159 1288 1364 580 
Q 1569 -128 1984 -844 
L 1484 -844 
Q 1016 -109 783 600 
Q 550 1309 550 2009 
Q 550 2706 781 3412 
Q 1013 4119 1484 4856 
L 1984 4856 
z
" transform="scale(0.015625)"/>
       <path id="DejaVuSans-75" d="M 544 1381 
L 544 3500 
L 1119 3500 
L 1119 1403 
Q 1119 906 1312 657 
Q 1506 409 1894 409 
Q 2359 409 2629 706 
Q 2900 1003 2900 1516 
L 2900 3500 
L 3475 3500 
L 3475 0 
L 2900 0 
L 2900 538 
Q 2691 219 2414 64 
Q 2138 -91 1772 -91 
Q 1169 -91 856 284 
Q 544 659 544 1381 
z
M 1991 3584 
L 1991 3584 
z
" transform="scale(0.015625)"/>
       <path id="DejaVuSans-29" d="M 513 4856 
L 1013 4856 
Q 1481 4119 1714 3412 
Q 1947 2706 1947 2009 
Q 1947 1309 1714 600 
Q 1481 -109 1013 -844 
L 513 -844 
Q 928 -128 1133 580 
Q 1338 1288 1338 2009 
Q 1338 2731 1133 3434 
Q 928 4138 513 4856 
z
" transform="scale(0.015625)"/>
      </defs>
      <use xlink:href="#DejaVuSans-68"/>
      <use xlink:href="#DejaVuSans-79" transform="translate(63.378906 0)"/>
      <use xlink:href="#DejaVuSans-70" transform="translate(122.558594 0)"/>
      <use xlink:href="#DejaVuSans-6f" transform="translate(186.035156 0)"/>
      <use xlink:href="#DejaVuSans-74" transform="translate(247.216797 0)"/>
      <use xlink:href="#DejaVuSans-68" transform="translate(286.425781 0)"/>
      <use xlink:href="#DejaVuSans-65" transform="translate(349.804688 0)"/>
      <use xlink:href="#DejaVuSans-74" transform="translate(411.328125 0)"/>
      <use xlink:href="#DejaVuSans-69" transform="translate(450.537109 0)"/>
      <use xlink:href="#DejaVuSans-63" transform="translate(478.320312 0)"/>
      <use xlink:href="#DejaVuSans-61" transform="translate(533.300781 0)"/>
      <use xlink:href="#DejaVuSans-6c" transform="translate(594.580078 0)"/>
      <use xlink:href="#DejaVuSans-20" transform="translate(622.363281 0)"/>
      <use xlink:href="#DejaVuSans-65" transform="translate(654.150391 0)"/>
      <use xlink:href="#DejaVuSans-78" transform="translate(713.923828 0)"/>
      <use xlink:href="#DejaVuSans-74" transform="translate(773.103516 0)"/>
      <use xlink:href="#DejaVuSans-72" transform="translate(812.3125 0)"/>
      <use xlink:href="#DejaVuSans-61" transform="translate(853.425781 0)"/>
      <use xlink:href="#DejaVuSans-20" transform="translate(914.705078 0)"/>
      <use xlink:href="#DejaVuSans-62" transform="translate(946.492188 0)"/>
      <use xlink:href="#DejaVuSans-6f" transform="translate(1009.96875 0)"/>
      <use xlink:href="#DejaVuSans-64" transform="translate(1071.150391 0)"/>
      <use xlink:href="#DejaVuSans-79" transform="translate(1134.626953 0)"/>
      <use xlink:href="#DejaVuSans-20" transform="translate(1193.806641 0)"/>
      <use xlink:href="#DejaVuSans-63" transform="translate(1225.59375 0)"/>
      <use xlink:href="#DejaVuSans-6f" transform="translate(1280.574219 0)"/>
      <use xlink:href="#DejaVuSans-73" transform="translate(1341.755859 0)"/>
      <use xlink:href="#DejaVuSans-74" transform="translate(1393.855469 0)"/>
      <use xlink:href="#DejaVuSans-20" transform="translate(1433.064453 0)"/>
      <use xlink:href="#DejaVuSans-70" transform="translate(1464.851562 0)"/>
      <use xlink:href="#DejaVuSans-65" transform="translate(1528.328125 0)"/>
      <use xlink:href="#DejaVuSans-72" transform="translate(1589.851562 0)"/>
      <use xlink:href="#DejaVuSans-20" transform="translate(1630.964844 0)"/>
      <use xlink:href="#DejaVuSans-61" transform="translate(1662.751953 0)"/>
      <use xlink:href="#DejaVuSans-74" transform="translate(1724.03125 0)"/>
      <use xlink:href="#DejaVuSans-74" transform="translate(1763.240234 0)"/>
      <use xlink:href="#DejaVuSans-65" transform="translate(1802.449219 0)"/>
      <use xlink:href="#DejaVuSans-6d" transform="translate(1863.972656 0)"/>
      <use xlink:href="#DejaVuSans-70" transform="translate(1961.384766 0)"/>
      <use xlink:href="#DejaVuSans-74" transform="translate(2024.861328 0)"/>
      <use xlink:href="#DejaVuSans-20" transform="translate(2064.070312 0)"/>
      <use xlink:href="#DejaVuSans-28" transform="translate(2095.857422 0)"/>
      <use xlink:href="#DejaVuSans-75" transform="translate(2134.871094 0)"/>
      <use xlink:href="#DejaVuSans-73" transform="translate(2198.25 0)"/>
      <use xlink:href="#DejaVuSans-29" transform="translate(2250.349609 0)"/>
     </g>
    </g>
   </g>
   <g id="matplotlib.axis_2">
    <g id="ytick_1">
     <g id="line2d_19">
      <path d="M 25.903365 223.245117 
L 419.812881 223.245117 
" clip-path="url(#pb3e7f16da9)" style="fill: none; stroke: #b0b0b0; stroke-opacity: 0.2; stroke-width: 0.8; stroke-linecap: square"/>
     </g>
     <g id="line2d_20">
      <defs>
       <path id="m0a3ba93288" d="M 0 0 
L -3.5 0 
" style="stroke: #000000; stroke-width: 0.8"/>
      </defs>
      <g>
       <use xlink:href="#m0a3ba93288" x="25.903365" y="223.245117" style="stroke: #000000; stroke-width: 0.8"/>
      </g>
     </g>
     <g id="text_11">
      <!-- 0.2 -->
      <g transform="translate(3.00024 227.044336) scale(0.1 -0.1)">
       <defs>
        <path id="DejaVuSans-2e" d="M 684 794 
L 1344 794 
L 1344 0 
L 684 0 
L 684 794 
z
" transform="scale(0.015625)"/>
       </defs>
       <use xlink:href="#DejaVuSans-30"/>
       <use xlink:href="#DejaVuSans-2e" transform="translate(63.623047 0)"/>
       <use xlink:href="#DejaVuSans-32" transform="translate(95.410156 0)"/>
      </g>
     </g>
    </g>
    <g id="ytick_2">
     <g id="line2d_21">
      <path d="M 25.903365 182.12306 
L 419.812881 182.12306 
" clip-path="url(#pb3e7f16da9)" style="fill: none; stroke: #b0b0b0; stroke-opacity: 0.2; stroke-width: 0.8; stroke-linecap: square"/>
     </g>
     <g id="line2d_22">
      <g>
       <use xlink:href="#m0a3ba93288" x="25.903365" y="182.12306" style="stroke: #000000; stroke-width: 0.8"/>
      </g>
     </g>
     <g id="text_12">
      <!-- 0.4 -->
      <g transform="translate(3.00024 185.922279) scale(0.1 -0.1)">
       <defs>
        <path id="DejaVuSans-34" d="M 2419 4116 
L 825 1625 
L 2419 1625 
L 2419 4116 
z
M 2253 4666 
L 3047 4666 
L 3047 1625 
L 3713 1625 
L 3713 1100 
L 3047 1100 
L 3047 0 
L 2419 0 
L 2419 1100 
L 313 1100 
L 313 1709 
L 2253 4666 
z
" transform="scale(0.015625)"/>
       </defs>
       <use xlink:href="#DejaVuSans-30"/>
       <use xlink:href="#DejaVuSans-2e" transform="translate(63.623047 0)"/>
       <use xlink:href="#DejaVuSans-34" transform="translate(95.410156 0)"/>
      </g>
     </g>
    </g>
    <g id="ytick_3">
     <g id="line2d_23">
      <path d="M 25.903365 141.001004 
L 419.812881 141.001004 
" clip-path="url(#pb3e7f16da9)" style="fill: none; stroke: #b0b0b0; stroke-opacity: 0.2; stroke-width: 0.8; stroke-linecap: square"/>
     </g>
     <g id="line2d_24">
      <g>
       <use xlink:href="#m0a3ba93288" x="25.903365" y="141.001004" style="stroke: #000000; stroke-width: 0.8"/>
      </g>
     </g>
     <g id="text_13">
      <!-- 0.6 -->
      <g transform="translate(3.00024 144.800222) scale(0.1 -0.1)">
       <defs>
        <path id="DejaVuSans-36" d="M 2113 2584 
Q 1688 2584 1439 2293 
Q 1191 2003 1191 1497 
Q 1191 994 1439 701 
Q 1688 409 2113 409 
Q 2538 409 2786 701 
Q 3034 994 3034 1497 
Q 3034 2003 2786 2293 
Q 2538 2584 2113 2584 
z
M 3366 4563 
L 3366 3988 
Q 3128 4100 2886 4159 
Q 2644 4219 2406 4219 
Q 1781 4219 1451 3797 
Q 1122 3375 1075 2522 
Q 1259 2794 1537 2939 
Q 1816 3084 2150 3084 
Q 2853 3084 3261 2657 
Q 3669 2231 3669 1497 
Q 3669 778 3244 343 
Q 2819 -91 2113 -91 
Q 1303 -91 875 529 
Q 447 1150 447 2328 
Q 447 3434 972 4092 
Q 1497 4750 2381 4750 
Q 2619 4750 2861 4703 
Q 3103 4656 3366 4563 
z
" transform="scale(0.015625)"/>
       </defs>
       <use xlink:href="#DejaVuSans-30"/>
       <use xlink:href="#DejaVuSans-2e" transform="translate(63.623047 0)"/>
       <use xlink:href="#DejaVuSans-36" transform="translate(95.410156 0)"/>
      </g>
     </g>
    </g>
    <g id="ytick_4">
     <g id="line2d_25">
      <path d="M 25.903365 99.878947 
L 419.812881 99.878947 
" clip-path="url(#pb3e7f16da9)" style="fill: none; stroke: #b0b0b0; stroke-opacity: 0.2; stroke-width: 0.8; stroke-linecap: square"/>
     </g>
     <g id="line2d_26">
      <g>
       <use xlink:href="#m0a3ba93288" x="25.903365" y="99.878947" style="stroke: #000000; stroke-width: 0.8"/>
      </g>
     </g>
     <g id="text_14">
      <!-- 0.8 -->
      <g transform="translate(3.00024 103.678166) scale(0.1 -0.1)">
       <defs>
        <path id="DejaVuSans-38" d="M 2034 2216 
Q 1584 2216 1326 1975 
Q 1069 1734 1069 1313 
Q 1069 891 1326 650 
Q 1584 409 2034 409 
Q 2484 409 2743 651 
Q 3003 894 3003 1313 
Q 3003 1734 2745 1975 
Q 2488 2216 2034 2216 
z
M 1403 2484 
Q 997 2584 770 2862 
Q 544 3141 544 3541 
Q 544 4100 942 4425 
Q 1341 4750 2034 4750 
Q 2731 4750 3128 4425 
Q 3525 4100 3525 3541 
Q 3525 3141 3298 2862 
Q 3072 2584 2669 2484 
Q 3125 2378 3379 2068 
Q 3634 1759 3634 1313 
Q 3634 634 3220 271 
Q 2806 -91 2034 -91 
Q 1263 -91 848 271 
Q 434 634 434 1313 
Q 434 1759 690 2068 
Q 947 2378 1403 2484 
z
M 1172 3481 
Q 1172 3119 1398 2916 
Q 1625 2713 2034 2713 
Q 2441 2713 2670 2916 
Q 2900 3119 2900 3481 
Q 2900 3844 2670 4047 
Q 2441 4250 2034 4250 
Q 1625 4250 1398 4047 
Q 1172 3844 1172 3481 
z
" transform="scale(0.015625)"/>
       </defs>
       <use xlink:href="#DejaVuSans-30"/>
       <use xlink:href="#DejaVuSans-2e" transform="translate(63.623047 0)"/>
       <use xlink:href="#DejaVuSans-38" transform="translate(95.410156 0)"/>
      </g>
     </g>
    </g>
    <g id="ytick_5">
     <g id="line2d_27">
      <path d="M 25.903365 58.756891 
L 419.812881 58.756891 
" clip-path="url(#pb3e7f16da9)" style="fill: none; stroke: #b0b0b0; stroke-opacity: 0.2; stroke-width: 0.8; stroke-linecap: square"/>
     </g>
     <g id="line2d_28">
      <g>
       <use xlink:href="#m0a3ba93288" x="25.903365" y="58.756891" style="stroke: #000000; stroke-width: 0.8"/>
      </g>
     </g>
     <g id="text_15">
      <!-- 1.0 -->
      <g transform="translate(3.00024 62.556109) scale(0.1 -0.1)">
       <use xlink:href="#DejaVuSans-31"/>
       <use xlink:href="#DejaVuSans-2e" transform="translate(63.623047 0)"/>
       <use xlink:href="#DejaVuSans-30" transform="translate(95.410156 0)"/>
      </g>
     </g>
    </g>
   </g>
   <g id="line2d_29">
    <path d="M 193.73642 226.435442 
L 242.680567 224.404102 
L 286.7303 207.922977 
L 330.780033 128.332342 
L 374.829766 54.299679 
L 418.879498 40.215719 
" clip-path="url(#pb3e7f16da9)" style="fill: none; stroke: #1e9187; stroke-width: 1.5; stroke-linecap: square"/>
    <defs>
     <path id="mfdff91a7f2" d="M 0 3 
C 0.795609 3 1.55874 2.683901 2.12132 2.12132 
C 2.683901 1.55874 3 0.795609 3 0 
C 3 -0.795609 2.683901 -1.55874 2.12132 -2.12132 
C 1.55874 -2.683901 0.795609 -3 0 -3 
C -0.795609 -3 -1.55874 -2.683901 -2.12132 -2.12132 
C -2.683901 -1.55874 -3 -0.795609 -3 0 
C -3 0.795609 -2.683901 1.55874 -2.12132 2.12132 
C -1.55874 2.683901 -0.795609 3 0 3 
z
" style="stroke: #1e9187"/>
    </defs>
    <g clip-path="url(#pb3e7f16da9)">
     <use xlink:href="#mfdff91a7f2" x="193.73642" y="226.435442" style="fill: #1e9187; stroke: #1e9187"/>
     <use xlink:href="#mfdff91a7f2" x="242.680567" y="224.404102" style="fill: #1e9187; stroke: #1e9187"/>
     <use xlink:href="#mfdff91a7f2" x="286.7303" y="207.922977" style="fill: #1e9187; stroke: #1e9187"/>
     <use xlink:href="#mfdff91a7f2" x="330.780033" y="128.332342" style="fill: #1e9187; stroke: #1e9187"/>
     <use xlink:href="#mfdff91a7f2" x="374.829766" y="54.299679" style="fill: #1e9187; stroke: #1e9187"/>
     <use xlink:href="#mfdff91a7f2" x="418.879498" y="40.215719" style="fill: #1e9187; stroke: #1e9187"/>
    </g>
   </g>
   <g id="line2d_30">
    <path d="M 193.73642 243.345454 
L 242.680567 242.107661 
L 286.7303 231.568685 
L 330.780033 164.076444 
L 374.829766 58.219014 
L 418.879498 29.405942 
" clip-path="url(#pb3e7f16da9)" style="fill: none; stroke: #cd5937; stroke-width: 1.5; stroke-linecap: square"/>
    <defs>
     <path id="md3966528ed" d="M 0 3 
C 0.795609 3 1.55874 2.683901 2.12132 2.12132 
C 2.683901 1.55874 3 0.795609 3 0 
C 3 -0.795609 2.683901 -1.55874 2.12132 -2.12132 
C 1.55874 -2.683901 0.795609 -3 0 -3 
C -0.795609 -3 -1.55874 -2.683901 -2.12132 -2.12132 
C -2.683901 -1.55874 -3 -0.795609 -3 0 
C -3 0.795609 -2.683901 1.55874 -2.12132 2.12132 
C -1.55874 2.683901 -0.795609 3 0 3 
z
" style="stroke: #cd5937"/>
    </defs>
    <g clip-path="url(#pb3e7f16da9)">
     <use xlink:href="#md3966528ed" x="193.73642" y="243.345454" style="fill: #cd5937; stroke: #cd5937"/>
     <use xlink:href="#md3966528ed" x="242.680567" y="242.107661" style="fill: #cd5937; stroke: #cd5937"/>
     <use xlink:href="#md3966528ed" x="286.7303" y="231.568685" style="fill: #cd5937; stroke: #cd5937"/>
     <use xlink:href="#md3966528ed" x="330.780033" y="164.076444" style="fill: #cd5937; stroke: #cd5937"/>
     <use xlink:href="#md3966528ed" x="374.829766" y="58.219014" style="fill: #cd5937; stroke: #cd5937"/>
     <use xlink:href="#md3966528ed" x="418.879498" y="29.405942" style="fill: #cd5937; stroke: #cd5937"/>
    </g>
   </g>
   <g id="line2d_31">
    <path d="M 25.903365 58.756891 
L 419.812881 58.756891 
" clip-path="url(#pb3e7f16da9)" style="fill: none; stroke: #000000; stroke-linecap: square"/>
   </g>
   <g id="patch_3">
    <path d="M 25.903365 254.64351 
L 25.903365 18.118365 
" style="fill: none; stroke: #000000; stroke-width: 0.8; stroke-linejoin: miter; stroke-linecap: square"/>
   </g>
   <g id="patch_4">
    <path d="M 419.812881 254.64351 
L 419.812881 18.118365 
" style="fill: none; stroke: #000000; stroke-width: 0.8; stroke-linejoin: miter; stroke-linecap: square"/>
   </g>
   <g id="patch_5">
    <path d="M 25.903365 254.64351 
L 419.812881 254.64351 
" style="fill: none; stroke: #000000; stroke-width: 0.8; stroke-linejoin: miter; stroke-linecap: square"/>
   </g>
   <g id="patch_6">
    <path d="M 25.903365 18.118365 
L 419.812881 18.118365 
" style="fill: none; stroke: #000000; stroke-width: 0.8; stroke-linejoin: miter; stroke-linecap: square"/>
   </g>
   <g id="text_16">
    <!-- EAS k=1 / accept_id effective rate -->
    <g transform="translate(120.317186 12.118365) scale(0.12 -0.12)">
     <defs>
      <path id="DejaVuSans-45" d="M 628 4666 
L 3578 4666 
L 3578 4134 
L 1259 4134 
L 1259 2753 
L 3481 2753 
L 3481 2222 
L 1259 2222 
L 1259 531 
L 3634 531 
L 3634 0 
L 628 0 
L 628 4666 
z
" transform="scale(0.015625)"/>
      <path id="DejaVuSans-41" d="M 2188 4044 
L 1331 1722 
L 3047 1722 
L 2188 4044 
z
M 1831 4666 
L 2547 4666 
L 4325 0 
L 3669 0 
L 3244 1197 
L 1141 1197 
L 716 0 
L 50 0 
L 1831 4666 
z
" transform="scale(0.015625)"/>
      <path id="DejaVuSans-53" d="M 3425 4513 
L 3425 3897 
Q 3066 4069 2747 4153 
Q 2428 4238 2131 4238 
Q 1616 4238 1336 4038 
Q 1056 3838 1056 3469 
Q 1056 3159 1242 3001 
Q 1428 2844 1947 2747 
L 2328 2669 
Q 3034 2534 3370 2195 
Q 3706 1856 3706 1288 
Q 3706 609 3251 259 
Q 2797 -91 1919 -91 
Q 1588 -91 1214 -16 
Q 841 59 441 206 
L 441 856 
Q 825 641 1194 531 
Q 1563 422 1919 422 
Q 2459 422 2753 634 
Q 3047 847 3047 1241 
Q 3047 1584 2836 1778 
Q 2625 1972 2144 2069 
L 1759 2144 
Q 1053 2284 737 2584 
Q 422 2884 422 3419 
Q 422 4038 858 4394 
Q 1294 4750 2059 4750 
Q 2388 4750 2728 4690 
Q 3069 4631 3425 4513 
z
" transform="scale(0.015625)"/>
      <path id="DejaVuSans-6b" d="M 581 4863 
L 1159 4863 
L 1159 1991 
L 2875 3500 
L 3609 3500 
L 1753 1863 
L 3688 0 
L 2938 0 
L 1159 1709 
L 1159 0 
L 581 0 
L 581 4863 
z
" transform="scale(0.015625)"/>
      <path id="DejaVuSans-3d" d="M 678 2906 
L 4684 2906 
L 4684 2381 
L 678 2381 
L 678 2906 
z
M 678 1631 
L 4684 1631 
L 4684 1100 
L 678 1100 
L 678 1631 
z
" transform="scale(0.015625)"/>
      <path id="DejaVuSans-2f" d="M 1625 4666 
L 2156 4666 
L 531 -594 
L 0 -594 
L 1625 4666 
z
" transform="scale(0.015625)"/>
      <path id="DejaVuSans-5f" d="M 3263 -1063 
L 3263 -1509 
L -63 -1509 
L -63 -1063 
L 3263 -1063 
z
" transform="scale(0.015625)"/>
      <path id="DejaVuSans-66" d="M 2375 4863 
L 2375 4384 
L 1825 4384 
Q 1516 4384 1395 4259 
Q 1275 4134 1275 3809 
L 1275 3500 
L 2222 3500 
L 2222 3053 
L 1275 3053 
L 1275 0 
L 697 0 
L 697 3053 
L 147 3053 
L 147 3500 
L 697 3500 
L 697 3744 
Q 697 4328 969 4595 
Q 1241 4863 1831 4863 
L 2375 4863 
z
" transform="scale(0.015625)"/>
      <path id="DejaVuSans-76" d="M 191 3500 
L 800 3500 
L 1894 563 
L 2988 3500 
L 3597 3500 
L 2284 0 
L 1503 0 
L 191 3500 
z
" transform="scale(0.015625)"/>
     </defs>
     <use xlink:href="#DejaVuSans-45"/>
     <use xlink:href="#DejaVuSans-41" transform="translate(63.183594 0)"/>
     <use xlink:href="#DejaVuSans-53" transform="translate(131.591797 0)"/>
     <use xlink:href="#DejaVuSans-20" transform="translate(195.068359 0)"/>
     <use xlink:href="#DejaVuSans-6b" transform="translate(226.855469 0)"/>
     <use xlink:href="#DejaVuSans-3d" transform="translate(284.765625 0)"/>
     <use xlink:href="#DejaVuSans-31" transform="translate(368.554688 0)"/>
     <use xlink:href="#DejaVuSans-20" transform="translate(432.177734 0)"/>
     <use xlink:href="#DejaVuSans-2f" transform="translate(463.964844 0)"/>
     <use xlink:href="#DejaVuSans-20" transform="translate(497.65625 0)"/>
     <use xlink:href="#DejaVuSans-61" transform="translate(529.443359 0)"/>
     <use xlink:href="#DejaVuSans-63" transform="translate(590.722656 0)"/>
     <use xlink:href="#DejaVuSans-63" transform="translate(645.703125 0)"/>
     <use xlink:href="#DejaVuSans-65" transform="translate(700.683594 0)"/>
     <use xlink:href="#DejaVuSans-70" transform="translate(762.207031 0)"/>
     <use xlink:href="#DejaVuSans-74" transform="translate(825.683594 0)"/>
     <use xlink:href="#DejaVuSans-5f" transform="translate(864.892578 0)"/>
     <use xlink:href="#DejaVuSans-69" transform="translate(914.892578 0)"/>
     <use xlink:href="#DejaVuSans-64" transform="translate(942.675781 0)"/>
     <use xlink:href="#DejaVuSans-20" transform="translate(1006.152344 0)"/>
     <use xlink:href="#DejaVuSans-65" transform="translate(1037.939453 0)"/>
     <use xlink:href="#DejaVuSans-66" transform="translate(1099.462891 0)"/>
     <use xlink:href="#DejaVuSans-66" transform="translate(1134.667969 0)"/>
     <use xlink:href="#DejaVuSans-65" transform="translate(1169.873047 0)"/>
     <use xlink:href="#DejaVuSans-63" transform="translate(1231.396484 0)"/>
     <use xlink:href="#DejaVuSans-74" transform="translate(1286.376953 0)"/>
     <use xlink:href="#DejaVuSans-69" transform="translate(1325.585938 0)"/>
     <use xlink:href="#DejaVuSans-76" transform="translate(1353.369141 0)"/>
     <use xlink:href="#DejaVuSans-65" transform="translate(1412.548828 0)"/>
     <use xlink:href="#DejaVuSans-20" transform="translate(1474.072266 0)"/>
     <use xlink:href="#DejaVuSans-72" transform="translate(1505.859375 0)"/>
     <use xlink:href="#DejaVuSans-61" transform="translate(1546.972656 0)"/>
     <use xlink:href="#DejaVuSans-74" transform="translate(1608.251953 0)"/>
     <use xlink:href="#DejaVuSans-65" transform="translate(1647.460938 0)"/>
    </g>
   </g>
   <g id="legend_1">
    <g id="patch_7">
     <path d="M 32.903365 55.474615 
L 111.433053 55.474615 
Q 113.433053 55.474615 113.433053 53.474615 
L 113.433053 25.118365 
Q 113.433053 23.118365 111.433053 23.118365 
L 32.903365 23.118365 
Q 30.903365 23.118365 30.903365 25.118365 
L 30.903365 53.474615 
Q 30.903365 55.474615 32.903365 55.474615 
z
" style="fill: #ffffff; opacity: 0.8; stroke: #cccccc; stroke-linejoin: miter"/>
    </g>
    <g id="line2d_32">
     <path d="M 34.903365 31.216802 
L 44.903365 31.216802 
L 54.903365 31.216802 
" style="fill: none; stroke: #1e9187; stroke-width: 1.5; stroke-linecap: square"/>
     <g>
      <use xlink:href="#mfdff91a7f2" x="44.903365" y="31.216802" style="fill: #1e9187; stroke: #1e9187"/>
     </g>
    </g>
    <g id="text_17">
     <!-- n=8192 -->
     <g transform="translate(62.903365 34.716802) scale(0.1 -0.1)">
      <defs>
       <path id="DejaVuSans-6e" d="M 3513 2113 
L 3513 0 
L 2938 0 
L 2938 2094 
Q 2938 2591 2744 2837 
Q 2550 3084 2163 3084 
Q 1697 3084 1428 2787 
Q 1159 2491 1159 1978 
L 1159 0 
L 581 0 
L 581 3500 
L 1159 3500 
L 1159 2956 
Q 1366 3272 1645 3428 
Q 1925 3584 2291 3584 
Q 2894 3584 3203 3211 
Q 3513 2838 3513 2113 
z
" transform="scale(0.015625)"/>
       <path id="DejaVuSans-39" d="M 703 97 
L 703 672 
Q 941 559 1184 500 
Q 1428 441 1663 441 
Q 2288 441 2617 861 
Q 2947 1281 2994 2138 
Q 2813 1869 2534 1725 
Q 2256 1581 1919 1581 
Q 1219 1581 811 2004 
Q 403 2428 403 3163 
Q 403 3881 828 4315 
Q 1253 4750 1959 4750 
Q 2769 4750 3195 4129 
Q 3622 3509 3622 2328 
Q 3622 1225 3098 567 
Q 2575 -91 1691 -91 
Q 1453 -91 1209 -44 
Q 966 3 703 97 
z
M 1959 2075 
Q 2384 2075 2632 2365 
Q 2881 2656 2881 3163 
Q 2881 3666 2632 3958 
Q 2384 4250 1959 4250 
Q 1534 4250 1286 3958 
Q 1038 3666 1038 3163 
Q 1038 2656 1286 2365 
Q 1534 2075 1959 2075 
z
" transform="scale(0.015625)"/>
      </defs>
      <use xlink:href="#DejaVuSans-6e"/>
      <use xlink:href="#DejaVuSans-3d" transform="translate(63.378906 0)"/>
      <use xlink:href="#DejaVuSans-38" transform="translate(147.167969 0)"/>
      <use xlink:href="#DejaVuSans-31" transform="translate(210.791016 0)"/>
      <use xlink:href="#DejaVuSans-39" transform="translate(274.414062 0)"/>
      <use xlink:href="#DejaVuSans-32" transform="translate(338.037109 0)"/>
     </g>
    </g>
    <g id="line2d_33">
     <path d="M 34.903365 45.894927 
L 44.903365 45.894927 
L 54.903365 45.894927 
" style="fill: none; stroke: #cd5937; stroke-width: 1.5; stroke-linecap: square"/>
     <g>
      <use xlink:href="#md3966528ed" x="44.903365" y="45.894927" style="fill: #cd5937; stroke: #cd5937"/>
     </g>
    </g>
    <g id="text_18">
     <!-- n=32768 -->
     <g transform="translate(62.903365 49.394927) scale(0.1 -0.1)">
      <defs>
       <path id="DejaVuSans-37" d="M 525 4666 
L 3525 4666 
L 3525 4397 
L 1831 0 
L 1172 0 
L 2766 4134 
L 525 4134 
L 525 4666 
z
" transform="scale(0.015625)"/>
      </defs>
      <use xlink:href="#DejaVuSans-6e"/>
      <use xlink:href="#DejaVuSans-3d" transform="translate(63.378906 0)"/>
      <use xlink:href="#DejaVuSans-33" transform="translate(147.167969 0)"/>
      <use xlink:href="#DejaVuSans-32" transform="translate(210.791016 0)"/>
      <use xlink:href="#DejaVuSans-37" transform="translate(274.414062 0)"/>
      <use xlink:href="#DejaVuSans-36" transform="translate(338.037109 0)"/>
      <use xlink:href="#DejaVuSans-38" transform="translate(401.660156 0)"/>
     </g>
    </g>
   </g>
  </g>
  <g id="axes_2">
   <g id="patch_8">
    <path d="M 459.223125 254.64351 
L 853.132641 254.64351 
L 853.132641 18.118365 
L 459.223125 18.118365 
z
" style="fill: #ffffff"/>
   </g>
   <g id="FillBetweenPolyCollection_3">
    <defs>
     <path id="m37ac0a8636" d="M 627.05618 -67.307241 
L 627.05618 -65.671877 
L 676.000327 -67.703288 
L 720.05006 -84.154546 
L 764.099793 -165.610167 
L 808.149526 -243.545471 
L 852.199258 -258.389255 
L 852.199258 -259.130492 
L 852.199258 -259.130492 
L 808.149526 -244.631604 
L 764.099793 -168.232238 
L 720.05006 -86.348774 
L 676.000327 -69.396338 
L 627.05618 -67.307241 
z
" style="stroke: #1e9187; stroke-opacity: 0.15"/>
    </defs>
    <g clip-path="url(#pe87e680c2e)">
     <use xlink:href="#m37ac0a8636" x="0" y="288" style="fill: #1e9187; fill-opacity: 0.15; stroke: #1e9187; stroke-opacity: 0.15"/>
    </g>
   </g>
   <g id="FillBetweenPolyCollection_4">
    <defs>
     <path id="m6a2711adcb" d="M 627.05618 -46.26394 
L 627.05618 -44.107633 
L 676.000327 -45.304438 
L 720.05006 -55.50656 
L 764.099793 -121.360537 
L 808.149526 -227.050365 
L 852.199258 -255.651549 
L 852.199258 -256.916112 
L 852.199258 -256.916112 
L 808.149526 -229.851433 
L 764.099793 -126.615461 
L 720.05006 -58.395663 
L 676.000327 -47.542286 
L 627.05618 -46.26394 
z
" style="stroke: #cd5937; stroke-opacity: 0.15"/>
    </defs>
    <g clip-path="url(#pe87e680c2e)">
     <use xlink:href="#m6a2711adcb" x="0" y="288" style="fill: #cd5937; fill-opacity: 0.15; stroke: #cd5937; stroke-opacity: 0.15"/>
    </g>
   </g>
   <g id="matplotlib.axis_3">
    <g id="xtick_10">
     <g id="line2d_34">
      <path d="M 490.012567 254.64351 
L 490.012567 18.118365 
" clip-path="url(#pe87e680c2e)" style="fill: none; stroke: #b0b0b0; stroke-opacity: 0.2; stroke-width: 0.8; stroke-linecap: square"/>
     </g>
     <g id="line2d_35">
      <g>
       <use xlink:href="#mf720b68ad9" x="490.012567" y="254.64351" style="stroke: #000000; stroke-width: 0.8"/>
      </g>
     </g>
     <g id="text_19">
      <!-- $\mathdefault{-10^{1}}$ -->
      <g transform="translate(477.012567 269.241947) scale(0.1 -0.1)">
       <use xlink:href="#DejaVuSans-2212" transform="translate(0 0.684375)"/>
       <use xlink:href="#DejaVuSans-31" transform="translate(83.789062 0.684375)"/>
       <use xlink:href="#DejaVuSans-30" transform="translate(147.412109 0.684375)"/>
       <use xlink:href="#DejaVuSans-31" transform="translate(211.992188 38.965625) scale(0.7)"/>
      </g>
     </g>
    </g>
    <g id="xtick_11">
     <g id="line2d_36">
      <path d="M 534.0623 254.64351 
L 534.0623 18.118365 
" clip-path="url(#pe87e680c2e)" style="fill: none; stroke: #b0b0b0; stroke-opacity: 0.2; stroke-width: 0.8; stroke-linecap: square"/>
     </g>
     <g id="line2d_37">
      <g>
       <use xlink:href="#mf720b68ad9" x="534.0623" y="254.64351" style="stroke: #000000; stroke-width: 0.8"/>
      </g>
     </g>
     <g id="text_20">
      <!-- $\mathdefault{-10^{0}}$ -->
      <g transform="translate(521.0623 269.241947) scale(0.1 -0.1)">
       <use xlink:href="#DejaVuSans-2212" transform="translate(0 0.765625)"/>
       <use xlink:href="#DejaVuSans-31" transform="translate(83.789062 0.765625)"/>
       <use xlink:href="#DejaVuSans-30" transform="translate(147.412109 0.765625)"/>
       <use xlink:href="#DejaVuSans-30" transform="translate(211.992188 39.046875) scale(0.7)"/>
      </g>
     </g>
    </g>
    <g id="xtick_12">
     <g id="line2d_38">
      <path d="M 578.112032 254.64351 
L 578.112032 18.118365 
" clip-path="url(#pe87e680c2e)" style="fill: none; stroke: #b0b0b0; stroke-opacity: 0.2; stroke-width: 0.8; stroke-linecap: square"/>
     </g>
     <g id="line2d_39">
      <g>
       <use xlink:href="#mf720b68ad9" x="578.112032" y="254.64351" style="stroke: #000000; stroke-width: 0.8"/>
      </g>
     </g>
     <g id="text_21">
      <!-- $\mathdefault{-10^{-1}}$ -->
      <g transform="translate(562.212032 269.241947) scale(0.1 -0.1)">
       <use xlink:href="#DejaVuSans-2212" transform="translate(0 0.684375)"/>
       <use xlink:href="#DejaVuSans-31" transform="translate(83.789062 0.684375)"/>
       <use xlink:href="#DejaVuSans-30" transform="translate(147.412109 0.684375)"/>
       <use xlink:href="#DejaVuSans-2212" transform="translate(211.992188 38.965625) scale(0.7)"/>
       <use xlink:href="#DejaVuSans-31" transform="translate(270.644531 38.965625) scale(0.7)"/>
      </g>
     </g>
    </g>
    <g id="xtick_13">
     <g id="line2d_40">
      <path d="M 627.05618 254.64351 
L 627.05618 18.118365 
" clip-path="url(#pe87e680c2e)" style="fill: none; stroke: #b0b0b0; stroke-opacity: 0.2; stroke-width: 0.8; stroke-linecap: square"/>
     </g>
     <g id="line2d_41">
      <g>
       <use xlink:href="#mf720b68ad9" x="627.05618" y="254.64351" style="stroke: #000000; stroke-width: 0.8"/>
      </g>
     </g>
     <g id="text_22">
      <!-- $\mathdefault{0}$ -->
      <g transform="translate(623.85618 269.241947) scale(0.1 -0.1)">
       <use xlink:href="#DejaVuSans-30" transform="translate(0 0.78125)"/>
      </g>
     </g>
    </g>
    <g id="xtick_14">
     <g id="line2d_42">
      <path d="M 676.000327 254.64351 
L 676.000327 18.118365 
" clip-path="url(#pe87e680c2e)" style="fill: none; stroke: #b0b0b0; stroke-opacity: 0.2; stroke-width: 0.8; stroke-linecap: square"/>
     </g>
     <g id="line2d_43">
      <g>
       <use xlink:href="#mf720b68ad9" x="676.000327" y="254.64351" style="stroke: #000000; stroke-width: 0.8"/>
      </g>
     </g>
     <g id="text_23">
      <!-- $\mathdefault{10^{-1}}$ -->
      <g transform="translate(664.250327 269.241947) scale(0.1 -0.1)">
       <use xlink:href="#DejaVuSans-31" transform="translate(0 0.684375)"/>
       <use xlink:href="#DejaVuSans-30" transform="translate(63.623047 0.684375)"/>
       <use xlink:href="#DejaVuSans-2212" transform="translate(128.203125 38.965625) scale(0.7)"/>
       <use xlink:href="#DejaVuSans-31" transform="translate(186.855469 38.965625) scale(0.7)"/>
      </g>
     </g>
    </g>
    <g id="xtick_15">
     <g id="line2d_44">
      <path d="M 720.05006 254.64351 
L 720.05006 18.118365 
" clip-path="url(#pe87e680c2e)" style="fill: none; stroke: #b0b0b0; stroke-opacity: 0.2; stroke-width: 0.8; stroke-linecap: square"/>
     </g>
     <g id="line2d_45">
      <g>
       <use xlink:href="#mf720b68ad9" x="720.05006" y="254.64351" style="stroke: #000000; stroke-width: 0.8"/>
      </g>
     </g>
     <g id="text_24">
      <!-- $\mathdefault{10^{0}}$ -->
      <g transform="translate(711.25006 269.241947) scale(0.1 -0.1)">
       <use xlink:href="#DejaVuSans-31" transform="translate(0 0.765625)"/>
       <use xlink:href="#DejaVuSans-30" transform="translate(63.623047 0.765625)"/>
       <use xlink:href="#DejaVuSans-30" transform="translate(128.203125 39.046875) scale(0.7)"/>
      </g>
     </g>
    </g>
    <g id="xtick_16">
     <g id="line2d_46">
      <path d="M 764.099793 254.64351 
L 764.099793 18.118365 
" clip-path="url(#pe87e680c2e)" style="fill: none; stroke: #b0b0b0; stroke-opacity: 0.2; stroke-width: 0.8; stroke-linecap: square"/>
     </g>
     <g id="line2d_47">
      <g>
       <use xlink:href="#mf720b68ad9" x="764.099793" y="254.64351" style="stroke: #000000; stroke-width: 0.8"/>
      </g>
     </g>
     <g id="text_25">
      <!-- $\mathdefault{10^{1}}$ -->
      <g transform="translate(755.299793 269.241947) scale(0.1 -0.1)">
       <use xlink:href="#DejaVuSans-31" transform="translate(0 0.684375)"/>
       <use xlink:href="#DejaVuSans-30" transform="translate(63.623047 0.684375)"/>
       <use xlink:href="#DejaVuSans-31" transform="translate(128.203125 38.965625) scale(0.7)"/>
      </g>
     </g>
    </g>
    <g id="xtick_17">
     <g id="line2d_48">
      <path d="M 808.149526 254.64351 
L 808.149526 18.118365 
" clip-path="url(#pe87e680c2e)" style="fill: none; stroke: #b0b0b0; stroke-opacity: 0.2; stroke-width: 0.8; stroke-linecap: square"/>
     </g>
     <g id="line2d_49">
      <g>
       <use xlink:href="#mf720b68ad9" x="808.149526" y="254.64351" style="stroke: #000000; stroke-width: 0.8"/>
      </g>
     </g>
     <g id="text_26">
      <!-- $\mathdefault{10^{2}}$ -->
      <g transform="translate(799.349526 269.241947) scale(0.1 -0.1)">
       <use xlink:href="#DejaVuSans-31" transform="translate(0 0.765625)"/>
       <use xlink:href="#DejaVuSans-30" transform="translate(63.623047 0.765625)"/>
       <use xlink:href="#DejaVuSans-32" transform="translate(128.203125 39.046875) scale(0.7)"/>
      </g>
     </g>
    </g>
    <g id="xtick_18">
     <g id="line2d_50">
      <path d="M 852.199258 254.64351 
L 852.199258 18.118365 
" clip-path="url(#pe87e680c2e)" style="fill: none; stroke: #b0b0b0; stroke-opacity: 0.2; stroke-width: 0.8; stroke-linecap: square"/>
     </g>
     <g id="line2d_51">
      <g>
       <use xlink:href="#mf720b68ad9" x="852.199258" y="254.64351" style="stroke: #000000; stroke-width: 0.8"/>
      </g>
     </g>
     <g id="text_27">
      <!-- $\mathdefault{10^{3}}$ -->
      <g transform="translate(843.399258 269.241947) scale(0.1 -0.1)">
       <use xlink:href="#DejaVuSans-31" transform="translate(0 0.765625)"/>
       <use xlink:href="#DejaVuSans-30" transform="translate(63.623047 0.765625)"/>
       <use xlink:href="#DejaVuSans-33" transform="translate(128.203125 39.046875) scale(0.7)"/>
      </g>
     </g>
    </g>
    <g id="text_28">
     <!-- hypothetical extra body cost per attempt (us) -->
     <g transform="translate(541.709133 282.920073) scale(0.1 -0.1)">
      <use xlink:href="#DejaVuSans-68"/>
      <use xlink:href="#DejaVuSans-79" transform="translate(63.378906 0)"/>
      <use xlink:href="#DejaVuSans-70" transform="translate(122.558594 0)"/>
      <use xlink:href="#DejaVuSans-6f" transform="translate(186.035156 0)"/>
      <use xlink:href="#DejaVuSans-74" transform="translate(247.216797 0)"/>
      <use xlink:href="#DejaVuSans-68" transform="translate(286.425781 0)"/>
      <use xlink:href="#DejaVuSans-65" transform="translate(349.804688 0)"/>
      <use xlink:href="#DejaVuSans-74" transform="translate(411.328125 0)"/>
      <use xlink:href="#DejaVuSans-69" transform="translate(450.537109 0)"/>
      <use xlink:href="#DejaVuSans-63" transform="translate(478.320312 0)"/>
      <use xlink:href="#DejaVuSans-61" transform="translate(533.300781 0)"/>
      <use xlink:href="#DejaVuSans-6c" transform="translate(594.580078 0)"/>
      <use xlink:href="#DejaVuSans-20" transform="translate(622.363281 0)"/>
      <use xlink:href="#DejaVuSans-65" transform="translate(654.150391 0)"/>
      <use xlink:href="#DejaVuSans-78" transform="translate(713.923828 0)"/>
      <use xlink:href="#DejaVuSans-74" transform="translate(773.103516 0)"/>
      <use xlink:href="#DejaVuSans-72" transform="translate(812.3125 0)"/>
      <use xlink:href="#DejaVuSans-61" transform="translate(853.425781 0)"/>
      <use xlink:href="#DejaVuSans-20" transform="translate(914.705078 0)"/>
      <use xlink:href="#DejaVuSans-62" transform="translate(946.492188 0)"/>
      <use xlink:href="#DejaVuSans-6f" transform="translate(1009.96875 0)"/>
      <use xlink:href="#DejaVuSans-64" transform="translate(1071.150391 0)"/>
      <use xlink:href="#DejaVuSans-79" transform="translate(1134.626953 0)"/>
      <use xlink:href="#DejaVuSans-20" transform="translate(1193.806641 0)"/>
      <use xlink:href="#DejaVuSans-63" transform="translate(1225.59375 0)"/>
      <use xlink:href="#DejaVuSans-6f" transform="translate(1280.574219 0)"/>
      <use xlink:href="#DejaVuSans-73" transform="translate(1341.755859 0)"/>
      <use xlink:href="#DejaVuSans-74" transform="translate(1393.855469 0)"/>
      <use xlink:href="#DejaVuSans-20" transform="translate(1433.064453 0)"/>
      <use xlink:href="#DejaVuSans-70" transform="translate(1464.851562 0)"/>
      <use xlink:href="#DejaVuSans-65" transform="translate(1528.328125 0)"/>
      <use xlink:href="#DejaVuSans-72" transform="translate(1589.851562 0)"/>
      <use xlink:href="#DejaVuSans-20" transform="translate(1630.964844 0)"/>
      <use xlink:href="#DejaVuSans-61" transform="translate(1662.751953 0)"/>
      <use xlink:href="#DejaVuSans-74" transform="translate(1724.03125 0)"/>
      <use xlink:href="#DejaVuSans-74" transform="translate(1763.240234 0)"/>
      <use xlink:href="#DejaVuSans-65" transform="translate(1802.449219 0)"/>
      <use xlink:href="#DejaVuSans-6d" transform="translate(1863.972656 0)"/>
      <use xlink:href="#DejaVuSans-70" transform="translate(1961.384766 0)"/>
      <use xlink:href="#DejaVuSans-74" transform="translate(2024.861328 0)"/>
      <use xlink:href="#DejaVuSans-20" transform="translate(2064.070312 0)"/>
      <use xlink:href="#DejaVuSans-28" transform="translate(2095.857422 0)"/>
      <use xlink:href="#DejaVuSans-75" transform="translate(2134.871094 0)"/>
      <use xlink:href="#DejaVuSans-73" transform="translate(2198.25 0)"/>
      <use xlink:href="#DejaVuSans-29" transform="translate(2250.349609 0)"/>
     </g>
    </g>
   </g>
   <g id="matplotlib.axis_4">
    <g id="ytick_6">
     <g id="line2d_52">
      <path d="M 459.223125 220.285581 
L 853.132641 220.285581 
" clip-path="url(#pe87e680c2e)" style="fill: none; stroke: #b0b0b0; stroke-opacity: 0.2; stroke-width: 0.8; stroke-linecap: square"/>
     </g>
     <g id="line2d_53">
      <g>
       <use xlink:href="#m0a3ba93288" x="459.223125" y="220.285581" style="stroke: #000000; stroke-width: 0.8"/>
      </g>
     </g>
     <g id="text_29">
      <!-- 0.2 -->
      <g transform="translate(436.32 224.0848) scale(0.1 -0.1)">
       <use xlink:href="#DejaVuSans-30"/>
       <use xlink:href="#DejaVuSans-2e" transform="translate(63.623047 0)"/>
       <use xlink:href="#DejaVuSans-32" transform="translate(95.410156 0)"/>
      </g>
     </g>
    </g>
    <g id="ytick_7">
     <g id="line2d_54">
      <path d="M 459.223125 172.051419 
L 853.132641 172.051419 
" clip-path="url(#pe87e680c2e)" style="fill: none; stroke: #b0b0b0; stroke-opacity: 0.2; stroke-width: 0.8; stroke-linecap: square"/>
     </g>
     <g id="line2d_55">
      <g>
       <use xlink:href="#m0a3ba93288" x="459.223125" y="172.051419" style="stroke: #000000; stroke-width: 0.8"/>
      </g>
     </g>
     <g id="text_30">
      <!-- 0.4 -->
      <g transform="translate(436.32 175.850638) scale(0.1 -0.1)">
       <use xlink:href="#DejaVuSans-30"/>
       <use xlink:href="#DejaVuSans-2e" transform="translate(63.623047 0)"/>
       <use xlink:href="#DejaVuSans-34" transform="translate(95.410156 0)"/>
      </g>
     </g>
    </g>
    <g id="ytick_8">
     <g id="line2d_56">
      <path d="M 459.223125 123.817257 
L 853.132641 123.817257 
" clip-path="url(#pe87e680c2e)" style="fill: none; stroke: #b0b0b0; stroke-opacity: 0.2; stroke-width: 0.8; stroke-linecap: square"/>
     </g>
     <g id="line2d_57">
      <g>
       <use xlink:href="#m0a3ba93288" x="459.223125" y="123.817257" style="stroke: #000000; stroke-width: 0.8"/>
      </g>
     </g>
     <g id="text_31">
      <!-- 0.6 -->
      <g transform="translate(436.32 127.616476) scale(0.1 -0.1)">
       <use xlink:href="#DejaVuSans-30"/>
       <use xlink:href="#DejaVuSans-2e" transform="translate(63.623047 0)"/>
       <use xlink:href="#DejaVuSans-36" transform="translate(95.410156 0)"/>
      </g>
     </g>
    </g>
    <g id="ytick_9">
     <g id="line2d_58">
      <path d="M 459.223125 75.583095 
L 853.132641 75.583095 
" clip-path="url(#pe87e680c2e)" style="fill: none; stroke: #b0b0b0; stroke-opacity: 0.2; stroke-width: 0.8; stroke-linecap: square"/>
     </g>
     <g id="line2d_59">
      <g>
       <use xlink:href="#m0a3ba93288" x="459.223125" y="75.583095" style="stroke: #000000; stroke-width: 0.8"/>
      </g>
     </g>
     <g id="text_32">
      <!-- 0.8 -->
      <g transform="translate(436.32 79.382314) scale(0.1 -0.1)">
       <use xlink:href="#DejaVuSans-30"/>
       <use xlink:href="#DejaVuSans-2e" transform="translate(63.623047 0)"/>
       <use xlink:href="#DejaVuSans-38" transform="translate(95.410156 0)"/>
      </g>
     </g>
    </g>
    <g id="ytick_10">
     <g id="line2d_60">
      <path d="M 459.223125 27.348933 
L 853.132641 27.348933 
" clip-path="url(#pe87e680c2e)" style="fill: none; stroke: #b0b0b0; stroke-opacity: 0.2; stroke-width: 0.8; stroke-linecap: square"/>
     </g>
     <g id="line2d_61">
      <g>
       <use xlink:href="#m0a3ba93288" x="459.223125" y="27.348933" style="stroke: #000000; stroke-width: 0.8"/>
      </g>
     </g>
     <g id="text_33">
      <!-- 1.0 -->
      <g transform="translate(436.32 31.148152) scale(0.1 -0.1)">
       <use xlink:href="#DejaVuSans-31"/>
       <use xlink:href="#DejaVuSans-2e" transform="translate(63.623047 0)"/>
       <use xlink:href="#DejaVuSans-30" transform="translate(95.410156 0)"/>
      </g>
     </g>
    </g>
   </g>
   <g id="line2d_62">
    <path d="M 627.05618 221.77415 
L 676.000327 219.720509 
L 720.05006 203.024514 
L 764.099793 121.321118 
L 808.149526 44.32386 
L 852.199258 29.410122 
" clip-path="url(#pe87e680c2e)" style="fill: none; stroke: #1e9187; stroke-width: 1.5; stroke-linecap: square"/>
    <g clip-path="url(#pe87e680c2e)">
     <use xlink:href="#mfdff91a7f2" x="627.05618" y="221.77415" style="fill: #1e9187; stroke: #1e9187"/>
     <use xlink:href="#mfdff91a7f2" x="676.000327" y="219.720509" style="fill: #1e9187; stroke: #1e9187"/>
     <use xlink:href="#mfdff91a7f2" x="720.05006" y="203.024514" style="fill: #1e9187; stroke: #1e9187"/>
     <use xlink:href="#mfdff91a7f2" x="764.099793" y="121.321118" style="fill: #1e9187; stroke: #1e9187"/>
     <use xlink:href="#mfdff91a7f2" x="808.149526" y="44.32386" style="fill: #1e9187; stroke: #1e9187"/>
     <use xlink:href="#mfdff91a7f2" x="852.199258" y="29.410122" style="fill: #1e9187; stroke: #1e9187"/>
    </g>
   </g>
   <g id="line2d_63">
    <path d="M 627.05618 243.173572 
L 676.000327 241.9546 
L 720.05006 231.575874 
L 764.099793 165.109885 
L 808.149526 60.313341 
L 852.199258 31.958833 
" clip-path="url(#pe87e680c2e)" style="fill: none; stroke: #cd5937; stroke-width: 1.5; stroke-linecap: square"/>
    <g clip-path="url(#pe87e680c2e)">
     <use xlink:href="#md3966528ed" x="627.05618" y="243.173572" style="fill: #cd5937; stroke: #cd5937"/>
     <use xlink:href="#md3966528ed" x="676.000327" y="241.9546" style="fill: #cd5937; stroke: #cd5937"/>
     <use xlink:href="#md3966528ed" x="720.05006" y="231.575874" style="fill: #cd5937; stroke: #cd5937"/>
     <use xlink:href="#md3966528ed" x="764.099793" y="165.109885" style="fill: #cd5937; stroke: #cd5937"/>
     <use xlink:href="#md3966528ed" x="808.149526" y="60.313341" style="fill: #cd5937; stroke: #cd5937"/>
     <use xlink:href="#md3966528ed" x="852.199258" y="31.958833" style="fill: #cd5937; stroke: #cd5937"/>
    </g>
   </g>
   <g id="line2d_64">
    <path d="M 459.223125 27.348933 
L 853.132641 27.348933 
" clip-path="url(#pe87e680c2e)" style="fill: none; stroke: #000000; stroke-linecap: square"/>
   </g>
   <g id="patch_9">
    <path d="M 459.223125 254.64351 
L 459.223125 18.118365 
" style="fill: none; stroke: #000000; stroke-width: 0.8; stroke-linejoin: miter; stroke-linecap: square"/>
   </g>
   <g id="patch_10">
    <path d="M 853.132641 254.64351 
L 853.132641 18.118365 
" style="fill: none; stroke: #000000; stroke-width: 0.8; stroke-linejoin: miter; stroke-linecap: square"/>
   </g>
   <g id="patch_11">
    <path d="M 459.223125 254.64351 
L 853.132641 254.64351 
" style="fill: none; stroke: #000000; stroke-width: 0.8; stroke-linejoin: miter; stroke-linecap: square"/>
   </g>
   <g id="patch_12">
    <path d="M 459.223125 18.118365 
L 853.132641 18.118365 
" style="fill: none; stroke: #000000; stroke-width: 0.8; stroke-linejoin: miter; stroke-linecap: square"/>
   </g>
   <g id="text_34">
    <!-- EAS k=1 / accept_static_degree effective rate -->
    <g transform="translate(518.614758 12.118365) scale(0.12 -0.12)">
     <defs>
      <path id="DejaVuSans-67" d="M 2906 1791 
Q 2906 2416 2648 2759 
Q 2391 3103 1925 3103 
Q 1463 3103 1205 2759 
Q 947 2416 947 1791 
Q 947 1169 1205 825 
Q 1463 481 1925 481 
Q 2391 481 2648 825 
Q 2906 1169 2906 1791 
z
M 3481 434 
Q 3481 -459 3084 -895 
Q 2688 -1331 1869 -1331 
Q 1566 -1331 1297 -1286 
Q 1028 -1241 775 -1147 
L 775 -588 
Q 1028 -725 1275 -790 
Q 1522 -856 1778 -856 
Q 2344 -856 2625 -561 
Q 2906 -266 2906 331 
L 2906 616 
Q 2728 306 2450 153 
Q 2172 0 1784 0 
Q 1141 0 747 490 
Q 353 981 353 1791 
Q 353 2603 747 3093 
Q 1141 3584 1784 3584 
Q 2172 3584 2450 3431 
Q 2728 3278 2906 2969 
L 2906 3500 
L 3481 3500 
L 3481 434 
z
" transform="scale(0.015625)"/>
     </defs>
     <use xlink:href="#DejaVuSans-45"/>
     <use xlink:href="#DejaVuSans-41" transform="translate(63.183594 0)"/>
     <use xlink:href="#DejaVuSans-53" transform="translate(131.591797 0)"/>
     <use xlink:href="#DejaVuSans-20" transform="translate(195.068359 0)"/>
     <use xlink:href="#DejaVuSans-6b" transform="translate(226.855469 0)"/>
     <use xlink:href="#DejaVuSans-3d" transform="translate(284.765625 0)"/>
     <use xlink:href="#DejaVuSans-31" transform="translate(368.554688 0)"/>
     <use xlink:href="#DejaVuSans-20" transform="translate(432.177734 0)"/>
     <use xlink:href="#DejaVuSans-2f" transform="translate(463.964844 0)"/>
     <use xlink:href="#DejaVuSans-20" transform="translate(497.65625 0)"/>
     <use xlink:href="#DejaVuSans-61" transform="translate(529.443359 0)"/>
     <use xlink:href="#DejaVuSans-63" transform="translate(590.722656 0)"/>
     <use xlink:href="#DejaVuSans-63" transform="translate(645.703125 0)"/>
     <use xlink:href="#DejaVuSans-65" transform="translate(700.683594 0)"/>
     <use xlink:href="#DejaVuSans-70" transform="translate(762.207031 0)"/>
     <use xlink:href="#DejaVuSans-74" transform="translate(825.683594 0)"/>
     <use xlink:href="#DejaVuSans-5f" transform="translate(864.892578 0)"/>
     <use xlink:href="#DejaVuSans-73" transform="translate(914.892578 0)"/>
     <use xlink:href="#DejaVuSans-74" transform="translate(966.992188 0)"/>
     <use xlink:href="#DejaVuSans-61" transform="translate(1006.201172 0)"/>
     <use xlink:href="#DejaVuSans-74" transform="translate(1067.480469 0)"/>
     <use xlink:href="#DejaVuSans-69" transform="translate(1106.689453 0)"/>
     <use xlink:href="#DejaVuSans-63" transform="translate(1134.472656 0)"/>
     <use xlink:href="#DejaVuSans-5f" transform="translate(1189.453125 0)"/>
     <use xlink:href="#DejaVuSans-64" transform="translate(1239.453125 0)"/>
     <use xlink:href="#DejaVuSans-65" transform="translate(1302.929688 0)"/>
     <use xlink:href="#DejaVuSans-67" transform="translate(1364.453125 0)"/>
     <use xlink:href="#DejaVuSans-72" transform="translate(1427.929688 0)"/>
     <use xlink:href="#DejaVuSans-65" transform="translate(1466.792969 0)"/>
     <use xlink:href="#DejaVuSans-65" transform="translate(1528.316406 0)"/>
     <use xlink:href="#DejaVuSans-20" transform="translate(1589.839844 0)"/>
     <use xlink:href="#DejaVuSans-65" transform="translate(1621.626953 0)"/>
     <use xlink:href="#DejaVuSans-66" transform="translate(1683.150391 0)"/>
     <use xlink:href="#DejaVuSans-66" transform="translate(1718.355469 0)"/>
     <use xlink:href="#DejaVuSans-65" transform="translate(1753.560547 0)"/>
     <use xlink:href="#DejaVuSans-63" transform="translate(1815.083984 0)"/>
     <use xlink:href="#DejaVuSans-74" transform="translate(1870.064453 0)"/>
     <use xlink:href="#DejaVuSans-69" transform="translate(1909.273438 0)"/>
     <use xlink:href="#DejaVuSans-76" transform="translate(1937.056641 0)"/>
     <use xlink:href="#DejaVuSans-65" transform="translate(1996.236328 0)"/>
     <use xlink:href="#DejaVuSans-20" transform="translate(2057.759766 0)"/>
     <use xlink:href="#DejaVuSans-72" transform="translate(2089.546875 0)"/>
     <use xlink:href="#DejaVuSans-61" transform="translate(2130.660156 0)"/>
     <use xlink:href="#DejaVuSans-74" transform="translate(2191.939453 0)"/>
     <use xlink:href="#DejaVuSans-65" transform="translate(2231.148438 0)"/>
    </g>
   </g>
   <g id="legend_2">
    <g id="patch_13">
     <path d="M 466.223125 249.64351 
L 544.752813 249.64351 
Q 546.752813 249.64351 546.752813 247.64351 
L 546.752813 219.28726 
Q 546.752813 217.28726 544.752813 217.28726 
L 466.223125 217.28726 
Q 464.223125 217.28726 464.223125 219.28726 
L 464.223125 247.64351 
Q 464.223125 249.64351 466.223125 249.64351 
z
" style="fill: #ffffff; opacity: 0.8; stroke: #cccccc; stroke-linejoin: miter"/>
    </g>
    <g id="line2d_65">
     <path d="M 468.223125 225.385697 
L 478.223125 225.385697 
L 488.223125 225.385697 
" style="fill: none; stroke: #1e9187; stroke-width: 1.5; stroke-linecap: square"/>
     <g>
      <use xlink:href="#mfdff91a7f2" x="478.223125" y="225.385697" style="fill: #1e9187; stroke: #1e9187"/>
     </g>
    </g>
    <g id="text_35">
     <!-- n=8192 -->
     <g transform="translate(496.223125 228.885697) scale(0.1 -0.1)">
      <use xlink:href="#DejaVuSans-6e"/>
      <use xlink:href="#DejaVuSans-3d" transform="translate(63.378906 0)"/>
      <use xlink:href="#DejaVuSans-38" transform="translate(147.167969 0)"/>
      <use xlink:href="#DejaVuSans-31" transform="translate(210.791016 0)"/>
      <use xlink:href="#DejaVuSans-39" transform="translate(274.414062 0)"/>
      <use xlink:href="#DejaVuSans-32" transform="translate(338.037109 0)"/>
     </g>
    </g>
    <g id="line2d_66">
     <path d="M 468.223125 240.063823 
L 478.223125 240.063823 
L 488.223125 240.063823 
" style="fill: none; stroke: #cd5937; stroke-width: 1.5; stroke-linecap: square"/>
     <g>
      <use xlink:href="#md3966528ed" x="478.223125" y="240.063823" style="fill: #cd5937; stroke: #cd5937"/>
     </g>
    </g>
    <g id="text_36">
     <!-- n=32768 -->
     <g transform="translate(496.223125 243.563823) scale(0.1 -0.1)">
      <use xlink:href="#DejaVuSans-6e"/>
      <use xlink:href="#DejaVuSans-3d" transform="translate(63.378906 0)"/>
      <use xlink:href="#DejaVuSans-33" transform="translate(147.167969 0)"/>
      <use xlink:href="#DejaVuSans-32" transform="translate(210.791016 0)"/>
      <use xlink:href="#DejaVuSans-37" transform="translate(274.414062 0)"/>
      <use xlink:href="#DejaVuSans-36" transform="translate(338.037109 0)"/>
      <use xlink:href="#DejaVuSans-38" transform="translate(401.660156 0)"/>
     </g>
    </g>
   </g>
  </g>
 </g>
 <defs>
  <clipPath id="pb3e7f16da9">
   <rect x="25.903365" y="18.118365" width="393.909516" height="236.525145"/>
  </clipPath>
  <clipPath id="pe87e680c2e">
   <rect x="459.223125" y="18.118365" width="393.909516" height="236.525145"/>
  </clipPath>
 </defs>
</svg>
